<?xml version="1.0" encoding="UTF-8"?>
<svg xmlns="http://www.w3.org/2000/svg" xmlns:xlink="http://www.w3.org/1999/xlink" viewBox="0 0 283.7 81.75"><defs><style>.cls-1{fill:url(#linear-gradient);}.cls-2{fill:url(#linear-gradient-2);}</style><linearGradient id="linear-gradient" x1="25.34" y1="-1.51" x2="57.81" y2="74.94" gradientUnits="userSpaceOnUse"><stop offset="0" stop-color="#fa6123"/><stop offset="0.5" stop-color="#fa225f"/><stop offset="1" stop-color="#f5227a"/></linearGradient><linearGradient id="linear-gradient-2" x1="73.12" y1="25.68" x2="96.69" y2="25.68" gradientUnits="userSpaceOnUse"><stop offset="0" stop-color="#6006d7"/><stop offset="1" stop-color="#8c04d3"/></linearGradient></defs><title>Logo 2</title><g id="Layer_2" data-name="Layer 2"><g id="Layer_1-2" data-name="Layer 1"><path d="M116.14,60.16l2.4-5.54V29h-2.27L109,37.25h-.26V27.57H139v9.68h-.26L131.45,29h-2.33V54.62l2.37,5.54v.35H116.14Z"/><path d="M158.62,54.69a17.12,17.12,0,0,1-2,2.67,11.47,11.47,0,0,1-2.45,2,11.25,11.25,0,0,1-3.05,1.26,15.11,15.11,0,0,1-3.78.43,13.17,13.17,0,0,1-5-.89,10.61,10.61,0,0,1-3.77-2.49,11.18,11.18,0,0,1-2.38-3.8,13.39,13.39,0,0,1-.83-4.81A13.66,13.66,0,0,1,136.3,44a11.5,11.5,0,0,1,2.6-4,11.66,11.66,0,0,1,4-2.6,14.26,14.26,0,0,1,5.25-.93,12.24,12.24,0,0,1,4.71.86,10,10,0,0,1,5.67,5.85,12,12,0,0,1,.75,4.26h-14v.09a12.7,12.7,0,0,0,.68,3.68,8,8,0,0,0,1.54,2.65,6,6,0,0,0,2.26,1.59,7.66,7.66,0,0,0,2.89.52,9.73,9.73,0,0,0,1.85-.16,10,10,0,0,0,1.53-.4,8.28,8.28,0,0,0,1.22-.52l.91-.52Zm-10.92-17a1.34,1.34,0,0,0-1.13.6,4.86,4.86,0,0,0-.72,1.76,16.48,16.48,0,0,0-.38,2.82c-.07,1.11-.1,2.36-.1,3.76l4.39-.45c0-1.61,0-3-.09-4a16.36,16.36,0,0,0-.32-2.62,3,3,0,0,0-.63-1.42A1.36,1.36,0,0,0,147.7,37.69Z"/><path d="M184.55,54.69a14.49,14.49,0,0,1-2,2.67A11.59,11.59,0,0,1,177,60.62a15.09,15.09,0,0,1-3.75.43,13.24,13.24,0,0,1-4.81-.84,10.51,10.51,0,0,1-3.72-2.42A10.75,10.75,0,0,1,162.28,54a13.44,13.44,0,0,1-.85-4.9,12.86,12.86,0,0,1,1-5.13,11.46,11.46,0,0,1,2.81-4,12.88,12.88,0,0,1,4.39-2.6,16.62,16.62,0,0,1,5.7-.93c.73,0,1.47,0,2.22.11s1.46.16,2.16.27,1.34.24,1.93.39a11.78,11.78,0,0,1,1.56.47L182,45.31h-.48c-1.08-1.74-2.1-3.25-3.06-4.51a27.42,27.42,0,0,0-3-3.34h-.16a2.4,2.4,0,0,0-1.52.73A5.38,5.38,0,0,0,172.61,40a13.13,13.13,0,0,0-.72,2.79,23.56,23.56,0,0,0-.25,3.62,14.56,14.56,0,0,0,.52,4.11,8.9,8.9,0,0,0,1.44,3,6.22,6.22,0,0,0,2.2,1.84,6.32,6.32,0,0,0,2.8.61,11.31,11.31,0,0,0,1.64-.12c.54-.09,1-.2,1.54-.33a8.23,8.23,0,0,0,1.35-.51,6.84,6.84,0,0,0,1.08-.64Z"/><path d="M198.1,26V40.23a14.51,14.51,0,0,1,1.58-1.41,11.77,11.77,0,0,1,1.9-1.2,11.32,11.32,0,0,1,2.22-.84,10.34,10.34,0,0,1,2.54-.31,8.18,8.18,0,0,1,2.77.47,7,7,0,0,1,2.28,1.33,6.23,6.23,0,0,1,1.53,2,6.14,6.14,0,0,1,.56,2.63V56h0l1.95,4.21v.35H201.88v-.35L203.59,56V43.13a3.15,3.15,0,0,0-.64-2.08,2.31,2.31,0,0,0-1.9-.78,4.35,4.35,0,0,0-1.69.32,3.83,3.83,0,0,0-1.26.87V56l1.72,4.21v.35H186.24v-.35L188.19,56V31.51l-1.88-3v-.29l11.51-2.45Z"/><path d="M217.42,36.79a8.64,8.64,0,0,1,1.07-4.4,9,9,0,0,1,2.94-3,13.89,13.89,0,0,1,4.41-1.75,25.59,25.59,0,0,1,5.47-.56h0a23.39,23.39,0,0,1,2.5.13c.84.08,1.65.19,2.42.32s1.52.28,2.21.44,1.31.33,1.85.49l.68,8.83h-.32A13,13,0,0,0,240,36c-.3-.49-.66-1-1.06-1.57s-.85-1.12-1.34-1.7-1-1.13-1.52-1.64a18.1,18.1,0,0,0-1.6-1.38,7,7,0,0,0-1.62-.94,6.24,6.24,0,0,0-1.7-.24h-1.34a4,4,0,0,0-1.71.35,3.92,3.92,0,0,0-1.25.94,4.13,4.13,0,0,0-.76,1.34,4.61,4.61,0,0,0-.27,1.56,3.38,3.38,0,0,0,.77,2.12,9.35,9.35,0,0,0,1.94,1.79A19.48,19.48,0,0,0,231,38.15l2.55,1.32q1.83,1,3.54,2a16.29,16.29,0,0,1,3,2.41A11,11,0,0,1,242.3,47a9.44,9.44,0,0,1,.8,4,9.22,9.22,0,0,1-1,4.53,9,9,0,0,1-2.92,3.14,13.74,13.74,0,0,1-4.41,1.83,23.94,23.94,0,0,1-5.51.59c-1,0-2.07,0-3.08-.1s-2-.16-2.9-.28-1.76-.28-2.53-.45a14,14,0,0,1-2-.59l-.66-9.26h.39c.79,1.13,1.6,2.24,2.41,3.34a26.89,26.89,0,0,0,2.54,2.95,12.8,12.8,0,0,0,2.77,2.11,6.34,6.34,0,0,0,3.08.8h.6a4.65,4.65,0,0,0,2.11-.45A4.74,4.74,0,0,0,233.47,58a4.69,4.69,0,0,0,.91-1.55,4.89,4.89,0,0,0,.3-1.65,3.56,3.56,0,0,0-.66-2.07,8.24,8.24,0,0,0-1.72-1.79,18.68,18.68,0,0,0-2.5-1.65c-1-.54-1.92-1.08-2.93-1.63s-2.28-1.29-3.4-2a18.26,18.26,0,0,1-3-2.35,11.21,11.21,0,0,1-2.19-2.88A7.77,7.77,0,0,1,217.42,36.79Z"/><path d="M268,54.69a14.49,14.49,0,0,1-2,2.67,11.59,11.59,0,0,1-5.61,3.26,15.09,15.09,0,0,1-3.75.43,13.24,13.24,0,0,1-4.81-.84,10.51,10.51,0,0,1-3.72-2.42A10.75,10.75,0,0,1,245.71,54a13.44,13.44,0,0,1-.85-4.9,12.86,12.86,0,0,1,1-5.13,11.46,11.46,0,0,1,2.81-4,12.88,12.88,0,0,1,4.39-2.6,16.52,16.52,0,0,1,5.69-.93c.74,0,1.48,0,2.23.11s1.46.16,2.16.27,1.34.24,1.93.39a11.78,11.78,0,0,1,1.56.47l-1.24,7.6h-.48c-1.08-1.74-2.1-3.25-3.07-4.51a26.57,26.57,0,0,0-3-3.34h-.16a2.37,2.37,0,0,0-1.52.73A5.38,5.38,0,0,0,256,40a13.13,13.13,0,0,0-.72,2.79,23.56,23.56,0,0,0-.25,3.62,15,15,0,0,0,.51,4.11,9.1,9.1,0,0,0,1.45,3,6.19,6.19,0,0,0,2.19,1.84A6.39,6.39,0,0,0,262,56a11.07,11.07,0,0,0,1.63-.12c.55-.09,1.06-.2,1.55-.33a8.23,8.23,0,0,0,1.35-.51,6.84,6.84,0,0,0,1.08-.64Z"/><path d="M281.76,36.72V56l1.94,4.28v.28H269.9v-.28l2-4.23V42.26l-1.88-3v-.34l11.56-2.45Zm-.09-6.86a5,5,0,0,1-.4,2,4.83,4.83,0,0,1-1.11,1.56,5,5,0,0,1-1.69,1,6.12,6.12,0,0,1-2.14.36,5.94,5.94,0,0,1-2.1-.36,4.79,4.79,0,0,1-1.66-1,4.63,4.63,0,0,1-1.09-1.56,5,5,0,0,1-.39-2,4.9,4.9,0,0,1,.39-2,4.63,4.63,0,0,1,1.09-1.56,5,5,0,0,1,1.66-1,5.72,5.72,0,0,1,2.1-.37,5.9,5.9,0,0,1,2.14.38,5.25,5.25,0,0,1,1.69,1,4.68,4.68,0,0,1,1.11,1.55A4.88,4.88,0,0,1,281.67,29.86Z"/><path class="cls-1" d="M56.23,0H24a10.85,10.85,0,0,0-8.44,4L14.31,6,0,27.93H17.91a10.94,10.94,0,0,1,10.25,8.21h0l.24,1.26L36.27,78a4.57,4.57,0,0,0,8.83.72L66,16.65l1.51-4.45c0-.32,0-.65.06-1C67.73,5.05,62.4,0,56.23,0Z"/><path class="cls-2" d="M95.75,12.61H74.09L65.28,38.74h23a5.9,5.9,0,0,0,5.37-4.15l5.73-15.54C100.47,16,98.57,12.61,95.75,12.61Z"/></g></g></svg>
